<svg xmlns="http://www.w3.org/2000/svg" width="64" height="64" viewBox="0 0 64 64" role="img" aria-label="TikTok logo">
  <circle cx="32" cy="32" r="30" fill="#111111" />
  <path fill="#25f4ee" d="M36.8 17.8v21.7a8.5 8.5 0 1 1-7.3-8.4v4.5a4.1 4.1 0 1 0 3 3.9V17.8h4.3z" />
  <path fill="#fe2c55" d="M40.8 18.1c1.2 3 3.4 5.3 6.3 6.5v4.6a14.6 14.6 0 0 1-6.3-2.2v12.4a8.5 8.5 0 1 1-11.8-7.8v4.2a4.1 4.1 0 1 0 7.4 2.5V18.1h4.4z" />
  <path fill="#ffffff" d="M39.4 17.5c1.2 3 3.5 5.3 6.4 6.5v4a14.9 14.9 0 0 1-6.4-2.4v13.6a7.2 7.2 0 1 1-10-6.6v3.6a3.5 3.5 0 1 0 4.9 3.3V17.5h5.1z" />
</svg>
