<svg xmlns="http://www.w3.org/2000/svg" width="64" height="64" viewBox="0 0 64 64" role="img" aria-label="Zalo logo">
  <defs>
    <linearGradient id="zaloBg" x1="0" x2="1" y1="0" y2="1">
      <stop offset="0%" stop-color="#2ea0ff" />
      <stop offset="100%" stop-color="#036dff" />
    </linearGradient>
  </defs>
  <circle cx="32" cy="32" r="30" fill="url(#zaloBg)" />
  <rect x="11" y="18" width="42" height="28" rx="14" fill="#ffffff" />
  <path fill="#036dff" d="M22.7 39h18.8c1 0 1.8-.8 1.8-1.8s-.8-1.8-1.8-1.8H28l14.7-10.3c.7-.5 1-1.3.7-2.1c-.3-.8-1-1.3-1.9-1.3H22.6c-1 0-1.8.8-1.8 1.8s.8 1.8 1.8 1.8h13.4L21.5 35.5c-.7.5-1 1.3-.7 2.1c.3.8 1 1.4 1.9 1.4z" />
</svg>
